<svg xmlns="http://www.w3.org/2000/svg" width="60" height="60" viewBox="0 0 60 60">
    <g fill="none" fill-rule="evenodd">
        <circle cx="30" cy="30" r="30" fill="#00C896"/>
        <path fill="#FFF" d="M32.209 27.032c-.352 0-.69.06-.989.157-.46.151-1.967.79-2.021 2.68a4.866 4.866 0 0 0 0 .26c.054 1.893 1.56 2.531 2.02 2.682.982.321 2.371.226 3.329-1.003a.417.417 0 0 0 .01-.014L35.978 30l-1.42-1.794a.154.154 0 0 0-.01-.013c-.665-.854-1.539-1.161-2.34-1.161m-2.206-12.976l-.228.001c-8.25.114-14.827 6.257-15.635 14.274-.918 9.107 6.089 17.252 15.236 17.602a15.884 15.884 0 0 0 13.112-6.012 1.362 1.362 0 0 0-.006-1.699l-3.335-4.216a.316.316 0 0 0-.495 0l-.493.623c-1.992 2.552-5.273 3.548-8.363 2.536-3.053-.999-5.084-3.707-5.176-6.9a8.425 8.425 0 0 1 0-.532c.092-3.19 2.124-5.9 5.176-6.898 3.09-1.012 6.37-.016 8.363 2.535l.493.624c.126.16.368.16.495 0l3.334-4.217c.4-.504.395-1.212-.012-1.721a15.856 15.856 0 0 0-12.466-6m0 36.47a20.396 20.396 0 0 1-14.517-6.01A20.396 20.396 0 0 1 9.474 30c0-5.442 2.095-10.565 5.898-14.423 3.805-3.86 8.897-6.026 14.339-6.101 3.231-.045 6.333.64 9.22 2.036a20.702 20.702 0 0 1 7.117 5.684 5.94 5.94 0 0 1 .027 7.424L41.819 30l4.256 5.38a5.925 5.925 0 0 1-.003 7.394 20.433 20.433 0 0 1-16.07 7.752"/>
    </g>
</svg>
