<svg xmlns="http://www.w3.org/2000/svg" width="123" height="29" viewBox="0 0 123 29">
    <g fill="#00C896" fill-rule="evenodd">
        <path d="M37.804 16.623c.302-.29.646-.434 1.031-.434.374 0 .694.133.96.398.264.265.397.585.397.959 0 .385-.217.795-.651 1.23a6.03 6.03 0 0 1-1.999 1.311c-.778.32-1.564.48-2.36.48a5.93 5.93 0 0 1-2.415-.498 6.523 6.523 0 0 1-1.98-1.339 6.33 6.33 0 0 1-1.348-1.971 5.93 5.93 0 0 1-.498-2.415c0-.856.163-1.661.489-2.415a6.205 6.205 0 0 1 1.338-1.971 6.391 6.391 0 0 1 1.98-1.33 6.023 6.023 0 0 1 2.416-.488c1.447 0 2.761.482 3.943 1.447.35.29.6.548.75.778.151.229.227.482.227.76 0 .373-.13.69-.39.949-.259.26-.581.389-.967.389-.35 0-.687-.145-1.013-.434l-.29-.272a3.214 3.214 0 0 0-1.049-.642 3.445 3.445 0 0 0-2.568.045 3.31 3.31 0 0 0-1.094.751c-.308.32-.552.69-.733 1.113-.18.422-.271.868-.271 1.338a3.411 3.411 0 0 0 1.022 2.442c.32.314.69.56 1.112.742.422.18.868.27 1.339.27.386 0 .777-.068 1.175-.207.398-.139.718-.317.959-.534l.488-.452zm5.553 3.762c-1.073-.024-1.61-.56-1.61-1.61V9.75c.013-.47.142-.845.39-1.122.247-.277.581-.416 1.003-.416.423 0 .757.142 1.004.425.248.284.371.654.371 1.113v8.103h3.6c.422.012.76.13 1.013.353.253.223.38.527.38.913s-.127.694-.38.923c-.254.229-.591.343-1.013.343h-4.758zm14.905-1.157l-.416-.905H53l-.38.887-.109.271c-.301.651-.754.977-1.356.977-.374 0-.7-.13-.977-.39a1.231 1.231 0 0 1-.416-.93c0-.23.066-.489.199-.778l.126-.272 3.998-8.953c.253-.567.693-.85 1.32-.85.29 0 .552.072.787.216.235.145.413.356.534.634l4.106 8.917c.132.29.217.5.253.633.036.133.054.284.054.452 0 .362-.138.676-.416.94a1.367 1.367 0 0 1-.977.399c-.615 0-1.067-.32-1.356-.959l-.127-.29zm-1.374-3.292l-1.466-3.473-1.429 3.473h2.895zm8.23-.959c-.917-.265-1.604-.56-2.062-.886a2.339 2.339 0 0 1-.832-.986 3.338 3.338 0 0 1-.29-1.42c0-.519.103-.995.308-1.429.205-.434.491-.808.859-1.121a3.987 3.987 0 0 1 1.33-.733 5.292 5.292 0 0 1 1.7-.262c.518 0 1.01.06 1.474.18.464.121.871.287 1.22.498.35.211.625.458.824.742.199.283.298.587.298.913 0 .35-.117.651-.353.904-.235.254-.521.38-.859.38-.24 0-.47-.078-.687-.235a1.79 1.79 0 0 1-.199-.154c-.109-.09-.247-.202-.416-.334-.482-.386-.953-.579-1.41-.579-.375 0-.694.109-.96.326-.265.217-.398.476-.398.777 0 .302.106.537.317.706.211.169.594.32 1.149.452.53.133.988.262 1.374.389.386.127.73.262 1.031.407.64.301 1.125.717 1.456 1.248.332.53.498 1.146.498 1.845 0 .59-.106 1.127-.317 1.61a3.573 3.573 0 0 1-.904 1.248 4.2 4.2 0 0 1-1.393.814c-.537.193-1.13.29-1.782.29-.59 0-1.154-.08-1.69-.236a5.054 5.054 0 0 1-1.412-.642 3.518 3.518 0 0 1-.967-.94 1.954 1.954 0 0 1-.362-1.113c0-.18.033-.35.1-.506a1.378 1.378 0 0 1 .669-.706c.15-.072.31-.108.479-.108.253 0 .488.05.705.153.217.103.477.287.778.552.35.326.675.56.977.705.301.145.609.218.922.218.41 0 .751-.124 1.022-.371.272-.247.407-.558.407-.932 0-.313-.111-.576-.334-.787-.223-.21-.582-.389-1.077-.533l-1.193-.344zm9.912 0c-.916-.265-1.604-.56-2.062-.886a2.339 2.339 0 0 1-.832-.986 3.338 3.338 0 0 1-.29-1.42c0-.519.103-.995.308-1.429.205-.434.491-.808.86-1.121a3.987 3.987 0 0 1 1.329-.733 5.292 5.292 0 0 1 1.7-.262c.518 0 1.01.06 1.474.18.464.121.871.287 1.221.498.35.211.624.458.823.742.2.283.299.587.299.913 0 .35-.118.651-.353.904-.235.254-.522.38-.86.38-.24 0-.47-.078-.687-.235a1.79 1.79 0 0 1-.199-.154c-.108-.09-.247-.202-.416-.334-.482-.386-.952-.579-1.41-.579-.374 0-.694.109-.96.326-.265.217-.397.476-.397.777 0 .302.105.537.316.706.211.169.594.32 1.149.452.53.133.989.262 1.375.389s.73.262 1.03.407c.64.301 1.125.717 1.457 1.248.331.53.497 1.146.497 1.845 0 .59-.105 1.127-.316 1.61a3.573 3.573 0 0 1-.905 1.248 4.2 4.2 0 0 1-1.393.814c-.536.193-1.13.29-1.781.29-.591 0-1.155-.08-1.691-.236a5.054 5.054 0 0 1-1.411-.642 3.518 3.518 0 0 1-.968-.94 1.954 1.954 0 0 1-.362-1.113c0-.18.033-.35.1-.506a1.378 1.378 0 0 1 .669-.706c.15-.072.31-.108.48-.108.252 0 .488.05.705.153.217.103.476.287.777.552.35.326.676.56.977.705.302.145.61.218.923.218.41 0 .75-.124 1.022-.371.271-.247.407-.558.407-.932 0-.313-.112-.576-.335-.787-.223-.21-.582-.389-1.076-.533l-1.194-.344zm9.569 3.98v-8.104h-2.243c-.434-.012-.778-.13-1.031-.353-.254-.223-.38-.527-.38-.913 0-.374.13-.679.389-.914s.6-.352 1.022-.352h7.253c.422.012.763.13 1.022.352.26.223.389.528.389.914s-.13.693-.389.922c-.26.23-.6.344-1.022.344h-2.243v8.103c-.012.47-.142.848-.389 1.131-.247.283-.582.425-1.004.425-.41 0-.741-.145-.994-.434-.254-.29-.38-.663-.38-1.122zm7.741 0V9.75c.013-.47.142-.845.39-1.122.247-.277.581-.416 1.003-.416.422 0 .757.142 1.004.425.247.284.37.654.37 1.113v9.206c0 .47-.123.848-.37 1.131-.247.283-.582.425-1.004.425-.422 0-.76-.145-1.013-.434-.253-.29-.38-.663-.38-1.122zm8.194-5.572v5.571c0 .47-.123.848-.37 1.131-.248.283-.582.425-1.004.425-.422 0-.76-.145-1.013-.434-.253-.29-.38-.663-.38-1.122V9.822c0-.265.015-.467.045-.606.03-.139.094-.274.19-.407.265-.398.627-.597 1.085-.597.254 0 .474.054.66.163.187.108.402.32.643.633l5.064 6.385V9.75c.012-.47.142-.845.39-1.122.247-.277.575-.416.985-.416.422 0 .76.142 1.013.425.253.284.38.654.38 1.113v8.99c0 .337-.012.581-.036.732a.98.98 0 0 1-.181.425c-.133.205-.31.368-.534.488a1.48 1.48 0 0 1-.714.181c-.253 0-.468-.057-.642-.172-.175-.114-.395-.346-.66-.696l-4.92-6.313zm16.099 2.515c-.434-.013-.778-.13-1.031-.353-.253-.223-.38-.528-.38-.914 0-.373.13-.678.389-.913.26-.235.6-.353 1.022-.353h3.039c1.073.024 1.61.56 1.61 1.61v1.827c0 .386-.064.757-.19 1.112a2.93 2.93 0 0 1-.552.95c-.217.253-.48.482-.787.687a5.753 5.753 0 0 1-1.013.534c-.368.15-.756.268-1.166.353a6.056 6.056 0 0 1-3.645-.37 6.462 6.462 0 0 1-1.999-1.34 6.33 6.33 0 0 1-1.348-1.971 5.93 5.93 0 0 1-.497-2.415c0-.856.163-1.661.488-2.415a6.205 6.205 0 0 1 1.339-1.971 6.391 6.391 0 0 1 1.98-1.33 6.068 6.068 0 0 1 2.433-.488 5.99 5.99 0 0 1 1.719.253c.567.169 1.103.41 1.61.723.337.218.575.432.714.643.139.21.208.455.208.732 0 .386-.13.709-.389.968-.259.26-.582.389-.967.389-.097 0-.172-.003-.227-.01a.606.606 0 0 1-.18-.054 3.87 3.87 0 0 1-.263-.135 6.71 6.71 0 0 1-.434-.271 2.783 2.783 0 0 0-.832-.39 3.38 3.38 0 0 0-2.297.145 3.73 3.73 0 0 0-1.113.751c-.32.314-.57.684-.75 1.112-.181.428-.271.878-.271 1.348 0 .494.096.959.289 1.393.193.434.458.81.796 1.13.337.32.738.57 1.203.75.464.182.961.272 1.492.272.458 0 .844-.072 1.158-.217.313-.145.536-.35.669-.615.096-.193.145-.512.145-.958v-.2h-1.972zM14.831 12.77c-.2 0-.394.034-.566.09-.264.087-1.126.453-1.158 1.535a2.787 2.787 0 0 0 0 .15c.032 1.084.894 1.45 1.158 1.536.562.184 1.358.13 1.906-.575l.006-.008.813-1.027-.813-1.028a1.658 1.658 0 0 0-1.346-.673m-1.264-7.432h-.13c-4.726.066-8.493 3.584-8.956 8.176-.526 5.217 3.488 9.883 8.727 10.083a9.098 9.098 0 0 0 7.51-3.444.78.78 0 0 0-.003-.973l-1.91-2.415a.18.18 0 0 0-.284 0l-.282.357c-1.14 1.462-3.02 2.032-4.79 1.453-1.749-.572-2.912-2.124-2.965-3.953a4.826 4.826 0 0 1 0-.304c.053-1.828 1.216-3.38 2.965-3.952a4.311 4.311 0 0 1 4.79 1.453l.282.357a.181.181 0 0 0 .284 0l1.91-2.415a.79.79 0 0 0-.007-.987 9.082 9.082 0 0 0-7.14-3.436m-.001 20.89a11.683 11.683 0 0 1-8.315-3.443 11.682 11.682 0 0 1-3.443-8.314c0-3.118 1.2-6.052 3.379-8.262A11.688 11.688 0 0 1 13.4 2.714c1.85-.025 3.627.367 5.28 1.167a11.858 11.858 0 0 1 4.077 3.255c1 1.252 1.006 3 .016 4.253l-2.438 3.082 2.438 3.081a3.394 3.394 0 0 1-.002 4.235 11.704 11.704 0 0 1-9.205 4.44"/>
    </g>
</svg>
